<svg xmlns="http://www.w3.org/2000/svg" xmlns:xlink="http://www.w3.org/1999/xlink" width="55.719" height="55.719" viewBox="0 0 55.719 55.719">
  <defs>
    <filter id="Path_644" x="0" y="0" width="55.719" height="55.719" filterUnits="userSpaceOnUse">
      <feOffset dy="3" input="SourceAlpha"/>
      <feGaussianBlur stdDeviation="3" result="blur"/>
      <feFlood flood-opacity="0.161"/>
      <feComposite operator="in" in2="blur"/>
      <feComposite in="SourceGraphic"/>
    </filter>
  </defs>
  <g id="Group_592" data-name="Group 592" transform="translate(-1230 -232)">
    <g id="Group_480" data-name="Group 480" transform="translate(1239 238)">
      <g transform="matrix(1, 0, 0, 1, -9, -6)" filter="url(#Path_644)">
        <path id="Path_644-2" data-name="Path 644" d="M18.859,0A18.859,18.859,0,1,1,0,18.859,18.859,18.859,0,0,1,18.859,0Z" transform="translate(9 6)" fill="#009adf"/>
      </g>
    </g>
    <g id="plus_1_" data-name="plus (1)" transform="translate(1248.917 247.918)">
      <path id="Path_646" data-name="Path 646" d="M45.842,40.927H42.591V37.676a.831.831,0,0,0-1.662,0v3.252H37.677a.831.831,0,1,0,0,1.662h3.251v3.252a.831.831,0,0,0,1.662,0V42.59h3.252a.831.831,0,1,0,0-1.662Z" transform="translate(-32.763 -32.762)" fill="#fff"/>
    </g>
    <g id="Ellipse_35" data-name="Ellipse 35" transform="translate(1249 248)" fill="none" stroke="#fff" stroke-width="1.5">
      <circle cx="9" cy="9" r="9" stroke="none"/>
      <circle cx="9" cy="9" r="8.25" fill="none"/>
    </g>
  </g>
</svg>
