<svg xmlns="http://www.w3.org/2000/svg" width="13" height="15.6" viewBox="0 0 13 15.6">
  <g id="location" transform="translate(-678 -172)">
    <g id="location-2" data-name="location" transform="translate(678 172)">
      <g id="Group_162" data-name="Group 162" transform="translate(0)">
        <path id="Path_271" data-name="Path 271" d="M40.635,0a6.5,6.5,0,0,0-4.6,11.1l4.6,4.5,4.6-4.505A6.5,6.5,0,0,0,40.635,0Zm3.678,10.174-3.678,3.605L36.95,10.167A5.153,5.153,0,0,1,35.435,6.5a5.2,5.2,0,1,1,8.879,3.674Z" transform="translate(-34.135)" fill="#fff"/>
      </g>
    </g>
    <g id="Group_165" data-name="Group 165" transform="translate(681.25 175.25)">
      <g id="Group_164" data-name="Group 164" transform="translate(0)">
        <path id="Path_272" data-name="Path 272" d="M122.715,85.335a3.25,3.25,0,1,0,3.25,3.25A3.25,3.25,0,0,0,122.715,85.335Zm0,5.2a1.95,1.95,0,1,1,1.95-1.95A1.95,1.95,0,0,1,122.715,90.535Z" transform="translate(-119.465 -85.335)" fill="#fff"/>
      </g>
    </g>
  </g>
</svg>
