<svg id="percent" xmlns="http://www.w3.org/2000/svg" width="11.17" height="12.344" viewBox="0 0 11.17 12.344">
  <path id="Path_266" data-name="Path 266" d="M12.879,13.714a2.249,2.249,0,0,0,.283.016,2.561,2.561,0,0,0,1.621-.575,2.591,2.591,0,0,0,.954-1.744,2.562,2.562,0,0,0-.559-1.9,2.6,2.6,0,0,0-4.6,1.353,2.59,2.59,0,0,0,2.3,2.854Zm-1.11-2.726a1.4,1.4,0,0,1,.511-.938,1.374,1.374,0,0,1,.874-.307c.052,0,.1,0,.152.008a1.4,1.4,0,1,1-1.537,1.237Z" transform="translate(-10.34 -8.543)" fill="#fff"/>
  <path id="Path_267" data-name="Path 267" d="M29.608,27.427a2.6,2.6,0,0,0-4.6,1.353,2.562,2.562,0,0,0,.559,1.9,2.591,2.591,0,0,0,1.744.954,2.248,2.248,0,0,0,.283.016,2.561,2.561,0,0,0,1.621-.575A2.6,2.6,0,0,0,29.608,27.427Zm-1.146,2.714A1.4,1.4,0,0,1,26.2,28.9a1.4,1.4,0,1,1,2.263,1.241Z" transform="translate(-19.01 -19.31)" fill="#fff"/>
  <path id="Path_268" data-name="Path 268" d="M21.021,12.292a.6.6,0,0,0-.842-.092l-9.947,8.015a.6.6,0,0,0,.375,1.066.606.606,0,0,0,.375-.132l9.947-8.011A.6.6,0,0,0,21.021,12.292Z" transform="translate(-10.008 -10.661)" fill="#fff"/>
</svg>
